<svg width="111" height="72" viewBox="0 0 111 72" fill="none" xmlns="http://www.w3.org/2000/svg">
<path d="M20.7273 70H0.272705V0.181824H21.9545C28.6136 0.181824 34.3068 1.56819 39.0341 4.34092C43.7841 7.11364 47.4204 11.0909 49.9432 16.2727C52.4659 21.4546 53.7273 27.6705 53.7273 34.9205C53.7273 42.2386 52.4318 48.5227 49.8409 53.7727C47.2727 59 43.5227 63.0114 38.5909 65.8068C33.6818 68.6023 27.7273 70 20.7273 70ZM6.64771 64.2727H20.3523C26.3523 64.2727 31.375 63.0909 35.4204 60.7273C39.4659 58.3636 42.5 54.9886 44.5227 50.6023C46.5454 46.2159 47.5568 40.9886 47.5568 34.9205C47.5341 28.8977 46.5341 23.7159 44.5568 19.375C42.6023 15.0341 39.6932 11.7045 35.8295 9.38637C31.9886 7.06819 27.2386 5.90909 21.5795 5.90909H6.64771V64.2727Z" fill="black"/>
<path d="M89.088 71.0909C84.2017 71.0909 79.9744 69.9546 76.4062 67.6818C72.838 65.3864 70.0767 62.2159 68.1221 58.1705C66.1903 54.1023 65.2244 49.4205 65.2244 44.125C65.2244 38.8523 66.1903 34.1705 68.1221 30.0796C70.0767 25.9659 72.7699 22.75 76.2017 20.4318C79.6562 18.0909 83.6449 16.9205 88.1676 16.9205C91.0085 16.9205 93.7471 17.4432 96.3835 18.4886C99.0199 19.5114 101.384 21.0909 103.474 23.2273C105.588 25.3409 107.258 28.0114 108.486 31.2386C109.713 34.4432 110.327 38.2386 110.327 42.625V45.625H69.4176V40.2727H104.122C104.122 36.9091 103.44 33.8864 102.077 31.2046C100.736 28.5 98.8608 26.3636 96.4517 24.7955C94.0653 23.2273 91.304 22.4432 88.1676 22.4432C84.8494 22.4432 81.929 23.3296 79.4062 25.1023C76.8835 26.875 74.9062 29.2159 73.4744 32.125C72.0653 35.0341 71.3494 38.2159 71.3267 41.6705V44.875C71.3267 49.0341 72.0426 52.6705 73.4744 55.7841C74.929 58.875 76.9858 61.2727 79.6449 62.9773C82.304 64.6818 85.4517 65.5341 89.088 65.5341C91.5653 65.5341 93.7358 65.1477 95.5994 64.375C97.4858 63.6023 99.0653 62.5682 100.338 61.2727C101.633 59.9546 102.611 58.5114 103.27 56.9432L109.031 58.8182C108.236 61.0227 106.929 63.0568 105.111 64.9205C103.315 66.7841 101.065 68.2841 98.3608 69.4205C95.679 70.5341 92.588 71.0909 89.088 71.0909Z" fill="black"/>
</svg>
